<svg xmlns="http://www.w3.org/2000/svg" version="1.1" xmlns:xlink="http://www.w3.org/1999/xlink" xmlns:svgjs="http://svgjs.dev/svgjs" width="128" height="128" viewBox="0 0 128 128"><g transform="matrix(0.4497816593886463,0,0,0.4497816593886463,35.05461339403292,12.760752631578953)"><svg viewBox="0 0 53 95" data-background-color="#601c0e" preserveAspectRatio="xMidYMid meet" height="229" width="128" xmlns="http://www.w3.org/2000/svg" xmlns:xlink="http://www.w3.org/1999/xlink"><g id="tight-bounds" transform="matrix(1,0,0,1,0.14670488748653554,-0.24049999999999727)"><svg viewBox="0 0 52.70659022502692 95.481" height="95.481" width="52.70659022502692"><g><svg viewBox="0 0 52.70659022502692 95.481" height="95.481" width="52.70659022502692"><g><svg viewBox="0 0 52.70659022502692 95.481" height="95.481" width="52.70659022502692"><g id="textblocktransform"><svg viewBox="0 0 52.70659022502692 95.481" height="95.481" width="52.70659022502692" id="textblock"><g><svg viewBox="0 0 52.70659022502692 95.481" height="95.481" width="52.70659022502692"><g><svg viewBox="0 0 52.70659022502692 95.481" height="95.481" width="52.70659022502692"><g><svg xmlns="http://www.w3.org/2000/svg" xmlns:xlink="http://www.w3.org/1999/xlink" version="1.1" x="0" y="0" viewBox="38.46040530555581 29.09902848935846 23.07460831389919 41.800971510641546" enable-background="new 0 0 100 100" xml:space="preserve" height="95.481" width="52.70659022502692" class="icon-icon-0" data-fill-palette-color="accent" id="icon-0"><g fill="#e9eeb8" data-fill-palette-color="accent"><path d="M60.438 70.9h-18.18c-0.607 0-1.1-0.492-1.1-1.1v-2.669c0-0.406 0.221-0.762 0.549-0.952v-1.094c0-0.111 0.017-0.219 0.047-0.319-0.159-0.349-0.265-0.82-0.265-1.458 0-1.544 0.375-3.283 2.904-4.767-0.482-0.17-0.759-0.294-0.781-0.304-0.399-0.179-0.654-0.578-0.649-1.016 0.066-5.636 2.534-9.99 4.006-12.092-0.504 0.041-1.075 0.021-1.602-0.073-0.772-0.137-1.442 0.119-2.102 0.365-0.466 0.174-0.948 0.354-1.452 0.39-0.026 0.001-0.103 0.004-0.129 0.004-1.66 0-2.83-2.081-3.13-3.56-0.323-1.592 0.201-2.846 1.402-3.354 1.728-0.733 3.002-1.808 4.702-3.965 0.598-0.764 1.496-1.407 2.501-1.814-0.175-1.373-0.489-2.643-0.493-2.658-0.092-0.37 0.014-0.762 0.281-1.034 0.266-0.272 0.655-0.387 1.027-0.305 1.701 0.381 3.635 2.752 4.733 4.287 2.12 1.107 3.839 3.324 5.111 6.594 3.391 8.732 1.792 16.771 1.723 17.109-0.068 0.333-0.286 0.615-0.591 0.765-0.328 0.162-0.663 0.313-1.017 0.455 2.862 1.53 3.272 3.358 3.272 4.972 0 0.638-0.105 1.109-0.265 1.458 0.031 0.101 0.047 0.208 0.047 0.319v1.095c0.328 0.19 0.548 0.545 0.548 0.951v2.67C61.538 70.408 61.045 70.9 60.438 70.9zM43.358 68.701h15.979v-0.618c-0.328-0.19-0.548-0.545-0.548-0.951v-1.21c-0.235-0.202-0.385-0.502-0.385-0.836v-0.44c0-0.323 0.142-0.63 0.389-0.839 0.06-0.051 0.124-0.094 0.191-0.131 0.012-0.084 0.022-0.203 0.022-0.367 0-0.898 0-2.129-2.794-3.365-0.194-0.082-0.396-0.192-0.584-0.321-0.3-0.205-0.48-0.545-0.48-0.908v-0.941c0-0.479 0.31-0.902 0.766-1.048 0.582-0.186 1.09-0.375 1.562-0.582 0.278-1.879 0.964-8.458-1.707-15.337-1.099-2.823-2.575-4.737-4.268-5.535-0.173-0.082-0.322-0.207-0.432-0.364-0.58-0.827-1.185-1.579-1.743-2.183 0.047 0.358 0.088 0.728 0.114 1.092 0.039 0.537-0.316 1.023-0.839 1.149-1.063 0.257-1.841 0.857-2.214 1.333-1.931 2.45-3.493 3.748-5.573 4.631-0.135 0.057-0.157 0.297-0.153 0.488 0.023 0.96 0.758 2.085 1.095 2.209 0.089-0.021 0.419-0.145 0.739-0.265 0.647-0.241 1.454-0.542 2.436-0.542 0.273 0 0.549 0.024 0.818 0.072 0.227 0.04 0.46 0.061 0.695 0.061 0.921 0 1.599-0.311 1.606-0.313 0.275-0.128 0.597-0.14 0.879-0.023 0.282 0.114 0.509 0.338 0.618 0.622l0.331 0.858c0.149 0.386 0.067 0.824-0.209 1.132-0.042 0.048-4.111 4.651-4.481 11.262 0.375 0.131 0.895 0.295 1.525 0.449 0.492 0.121 0.837 0.562 0.837 1.068v0.707c0 0.377-0.193 0.728-0.512 0.93-0.168 0.106-0.349 0.209-0.554 0.3-2.796 1.236-2.796 2.467-2.796 3.365 0 0.164 0.01 0.283 0.022 0.367 0.068 0.036 0.132 0.08 0.192 0.131 0.247 0.209 0.389 0.516 0.389 0.839v0.44c0 0.335-0.149 0.635-0.385 0.836v1.21c0 0.406-0.221 0.762-0.549 0.952L43.358 68.701 43.358 68.701z" fill="#e9eeb8" data-fill-palette-color="accent"></path></g></svg></g></svg></g></svg></g></svg></g></svg></g></svg></g><defs></defs></svg><rect width="52.70659022502692" height="95.481" fill="none" stroke="none" visibility="hidden"></rect></g></svg></g></svg>